<?xml version="1.0" encoding="utf-8"?>
<svg version="1.1" xmlns:xlink="http://www.w3.org/1999/xlink" width="12px" height="12px" viewBox="404 784.5  12 12" xmlns="http://www.w3.org/2000/svg">
  <path d="M 410 784.5  C 413.36 784.5  416 787.14  416 790.5  C 416 793.86  413.36 796.5  410 796.5  C 406.64 796.5  404 793.86  404 790.5  C 404 787.14  406.64 784.5  410 784.5  Z " fill-rule="nonzero" fill="#ffffff" stroke="none" />
  <path d="M 410 785  C 413.08 785  415.5 787.42  415.5 790.5  C 415.5 793.58  413.08 796  410 796  C 406.92 796  404.5 793.58  404.5 790.5  C 404.5 787.42  406.92 785  410 785  Z " stroke-width="1" stroke="#797979" fill="none" />
  <path d="M 410 793.5  C 408.32 793.5  407 792.18  407 790.5  C 407 788.82  408.32 787.5  410 787.5  C 411.68 787.5  413 788.82  413 790.5  C 413 792.18  411.68 793.5  410 793.5  " fill-rule="nonzero" fill="#797979" stroke="none" />
</svg>