<?xml version="1.0" encoding="utf-8"?>
<svg version="1.1" xmlns:xlink="http://www.w3.org/1999/xlink" width="12px" height="12px" viewBox="1092 784.5  12 12" xmlns="http://www.w3.org/2000/svg">
  <path d="M 1098 784.5  C 1101.36 784.5  1104 787.14  1104 790.5  C 1104 793.86  1101.36 796.5  1098 796.5  C 1094.64 796.5  1092 793.86  1092 790.5  C 1092 787.14  1094.64 784.5  1098 784.5  Z " fill-rule="nonzero" fill="#ffffff" stroke="none" />
  <path d="M 1098 785  C 1101.08 785  1103.5 787.42  1103.5 790.5  C 1103.5 793.58  1101.08 796  1098 796  C 1094.92 796  1092.5 793.58  1092.5 790.5  C 1092.5 787.42  1094.92 785  1098 785  Z " stroke-width="1" stroke="#797979" fill="none" />
  <path d="M 1098 793.5  C 1096.32 793.5  1095 792.18  1095 790.5  C 1095 788.82  1096.32 787.5  1098 787.5  C 1099.68 787.5  1101 788.82  1101 790.5  C 1101 792.18  1099.68 793.5  1098 793.5  " fill-rule="nonzero" fill="#797979" stroke="none" />
</svg>