<?xml version="1.0" encoding="utf-8"?>
<svg version="1.1" xmlns:xlink="http://www.w3.org/1999/xlink" width="12px" height="12px" viewBox="355 360.5  12 12" xmlns="http://www.w3.org/2000/svg">
  <path d="M 361 360.5  C 364.36 360.5  367 363.14  367 366.5  C 367 369.86  364.36 372.5  361 372.5  C 357.64 372.5  355 369.86  355 366.5  C 355 363.14  357.64 360.5  361 360.5  Z " fill-rule="nonzero" fill="#ffffff" stroke="none" />
  <path d="M 361 361  C 364.08 361  366.5 363.42  366.5 366.5  C 366.5 369.58  364.08 372  361 372  C 357.92 372  355.5 369.58  355.5 366.5  C 355.5 363.42  357.92 361  361 361  Z " stroke-width="1" stroke="#797979" fill="none" />
  <path d="M 361 369.5  C 359.32 369.5  358 368.18  358 366.5  C 358 364.82  359.32 363.5  361 363.5  C 362.68 363.5  364 364.82  364 366.5  C 364 368.18  362.68 369.5  361 369.5  " fill-rule="nonzero" fill="#797979" stroke="none" />
</svg>