<?xml version="1.0" encoding="utf-8"?>
<svg version="1.1" xmlns:xlink="http://www.w3.org/1999/xlink" width="12px" height="12px" viewBox="1037 360.5  12 12" xmlns="http://www.w3.org/2000/svg">
  <path d="M 1043 360.5  C 1046.36 360.5  1049 363.14  1049 366.5  C 1049 369.86  1046.36 372.5  1043 372.5  C 1039.64 372.5  1037 369.86  1037 366.5  C 1037 363.14  1039.64 360.5  1043 360.5  Z " fill-rule="nonzero" fill="#f0f0f0" stroke="none" />
  <path d="M 1043 361  C 1046.08 361  1048.5 363.42  1048.5 366.5  C 1048.5 369.58  1046.08 372  1043 372  C 1039.92 372  1037.5 369.58  1037.5 366.5  C 1037.5 363.42  1039.92 361  1043 361  Z " stroke-width="1" stroke="#797979" fill="none" />
  <path d="M 1043 369.5  C 1041.32 369.5  1040 368.18  1040 366.5  C 1040 364.82  1041.32 363.5  1043 363.5  C 1044.68 363.5  1046 364.82  1046 366.5  C 1046 368.18  1044.68 369.5  1043 369.5  " fill-rule="nonzero" fill="#797979" stroke="none" />
</svg>