<?xml version="1.0" encoding="utf-8"?>
<svg version="1.1" xmlns:xlink="http://www.w3.org/1999/xlink" width="12px" height="12px" viewBox="497 417.5  12 12" xmlns="http://www.w3.org/2000/svg">
  <path d="M 503 417.5  C 506.36 417.5  509 420.14  509 423.5  C 509 426.86  506.36 429.5  503 429.5  C 499.64 429.5  497 426.86  497 423.5  C 497 420.14  499.64 417.5  503 417.5  Z " fill-rule="nonzero" fill="#ffffff" stroke="none" />
  <path d="M 503 418  C 506.08 418  508.5 420.42  508.5 423.5  C 508.5 426.58  506.08 429  503 429  C 499.92 429  497.5 426.58  497.5 423.5  C 497.5 420.42  499.92 418  503 418  Z " stroke-width="1" stroke="#797979" fill="none" />
  <path d="M 503 426.5  C 501.32 426.5  500 425.18  500 423.5  C 500 421.82  501.32 420.5  503 420.5  C 504.68 420.5  506 421.82  506 423.5  C 506 425.18  504.68 426.5  503 426.5  " fill-rule="nonzero" fill="#797979" stroke="none" />
</svg>