<?xml version="1.0" encoding="utf-8"?>
<svg version="1.1" xmlns:xlink="http://www.w3.org/1999/xlink" width="12px" height="12px" viewBox="355 473.5  12 12" xmlns="http://www.w3.org/2000/svg">
  <path d="M 361 473.5  C 364.36 473.5  367 476.14  367 479.5  C 367 482.86  364.36 485.5  361 485.5  C 357.64 485.5  355 482.86  355 479.5  C 355 476.14  357.64 473.5  361 473.5  Z " fill-rule="nonzero" fill="#f0f0f0" stroke="none" />
  <path d="M 361 474  C 364.08 474  366.5 476.42  366.5 479.5  C 366.5 482.58  364.08 485  361 485  C 357.92 485  355.5 482.58  355.5 479.5  C 355.5 476.42  357.92 474  361 474  Z " stroke-width="1" stroke="#797979" fill="none" />
  <path d="M 361 482.5  C 359.32 482.5  358 481.18  358 479.5  C 358 477.82  359.32 476.5  361 476.5  C 362.68 476.5  364 477.82  364 479.5  C 364 481.18  362.68 482.5  361 482.5  " fill-rule="nonzero" fill="#797979" stroke="none" />
</svg>