<?xml version="1.0" encoding="utf-8"?>
<svg version="1.1" xmlns:xlink="http://www.w3.org/1999/xlink" width="12px" height="12px" viewBox="677 473.5  12 12" xmlns="http://www.w3.org/2000/svg">
  <path d="M 683 473.5  C 686.36 473.5  689 476.14  689 479.5  C 689 482.86  686.36 485.5  683 485.5  C 679.64 485.5  677 482.86  677 479.5  C 677 476.14  679.64 473.5  683 473.5  Z " fill-rule="nonzero" fill="#ffffff" stroke="none" />
  <path d="M 683 474  C 686.08 474  688.5 476.42  688.5 479.5  C 688.5 482.58  686.08 485  683 485  C 679.92 485  677.5 482.58  677.5 479.5  C 677.5 476.42  679.92 474  683 474  Z " stroke-width="1" stroke="#797979" fill="none" />
  <path d="M 683 482.5  C 681.32 482.5  680 481.18  680 479.5  C 680 477.82  681.32 476.5  683 476.5  C 684.68 476.5  686 477.82  686 479.5  C 686 481.18  684.68 482.5  683 482.5  " fill-rule="nonzero" fill="#797979" stroke="none" />
</svg>