<?xml version="1.0" encoding="utf-8"?>
<svg version="1.1" xmlns:xlink="http://www.w3.org/1999/xlink" width="12px" height="12px" viewBox="1218 473.5  12 12" xmlns="http://www.w3.org/2000/svg">
  <path d="M 1224 473.5  C 1227.36 473.5  1230 476.14  1230 479.5  C 1230 482.86  1227.36 485.5  1224 485.5  C 1220.64 485.5  1218 482.86  1218 479.5  C 1218 476.14  1220.64 473.5  1224 473.5  Z " fill-rule="nonzero" fill="#f0f0f0" stroke="none" />
  <path d="M 1224 474  C 1227.08 474  1229.5 476.42  1229.5 479.5  C 1229.5 482.58  1227.08 485  1224 485  C 1220.92 485  1218.5 482.58  1218.5 479.5  C 1218.5 476.42  1220.92 474  1224 474  Z " stroke-width="1" stroke="#797979" fill="none" />
  <path d="M 1224 482.5  C 1222.32 482.5  1221 481.18  1221 479.5  C 1221 477.82  1222.32 476.5  1224 476.5  C 1225.68 476.5  1227 477.82  1227 479.5  C 1227 481.18  1225.68 482.5  1224 482.5  " fill-rule="nonzero" fill="#797979" stroke="none" />
</svg>