<?xml version="1.0" encoding="utf-8"?>
<svg version="1.1" xmlns:xlink="http://www.w3.org/1999/xlink" width="12px" height="12px" viewBox="355 531.5  12 12" xmlns="http://www.w3.org/2000/svg">
  <path d="M 361 531.5  C 364.36 531.5  367 534.14  367 537.5  C 367 540.86  364.36 543.5  361 543.5  C 357.64 543.5  355 540.86  355 537.5  C 355 534.14  357.64 531.5  361 531.5  Z " fill-rule="nonzero" fill="#ffffff" stroke="none" />
  <path d="M 361 532  C 364.08 532  366.5 534.42  366.5 537.5  C 366.5 540.58  364.08 543  361 543  C 357.92 543  355.5 540.58  355.5 537.5  C 355.5 534.42  357.92 532  361 532  Z " stroke-width="1" stroke="#797979" fill="none" />
  <path d="M 361 540.5  C 359.32 540.5  358 539.18  358 537.5  C 358 535.82  359.32 534.5  361 534.5  C 362.68 534.5  364 535.82  364 537.5  C 364 539.18  362.68 540.5  361 540.5  " fill-rule="nonzero" fill="#797979" stroke="none" />
</svg>