<?xml version="1.0" encoding="utf-8"?>
<svg version="1.1" xmlns:xlink="http://www.w3.org/1999/xlink" width="12px" height="12px" viewBox="520 531.5  12 12" xmlns="http://www.w3.org/2000/svg">
  <path d="M 526 531.5  C 529.36 531.5  532 534.14  532 537.5  C 532 540.86  529.36 543.5  526 543.5  C 522.64 543.5  520 540.86  520 537.5  C 520 534.14  522.64 531.5  526 531.5  Z " fill-rule="nonzero" fill="#f0f0f0" stroke="none" />
  <path d="M 526 532  C 529.08 532  531.5 534.42  531.5 537.5  C 531.5 540.58  529.08 543  526 543  C 522.92 543  520.5 540.58  520.5 537.5  C 520.5 534.42  522.92 532  526 532  Z " stroke-width="1" stroke="#797979" fill="none" />
  <path d="M 526 540.5  C 524.32 540.5  523 539.18  523 537.5  C 523 535.82  524.32 534.5  526 534.5  C 527.68 534.5  529 535.82  529 537.5  C 529 539.18  527.68 540.5  526 540.5  " fill-rule="nonzero" fill="#797979" stroke="none" />
</svg>