<?xml version="1.0" encoding="utf-8"?>
<svg version="1.1" xmlns:xlink="http://www.w3.org/1999/xlink" width="12px" height="12px" viewBox="355 592.5  12 12" xmlns="http://www.w3.org/2000/svg">
  <path d="M 361 592.5  C 364.36 592.5  367 595.14  367 598.5  C 367 601.86  364.36 604.5  361 604.5  C 357.64 604.5  355 601.86  355 598.5  C 355 595.14  357.64 592.5  361 592.5  Z " fill-rule="nonzero" fill="#ffffff" stroke="none" />
  <path d="M 361 593  C 364.08 593  366.5 595.42  366.5 598.5  C 366.5 601.58  364.08 604  361 604  C 357.92 604  355.5 601.58  355.5 598.5  C 355.5 595.42  357.92 593  361 593  Z " stroke-width="1" stroke="#797979" fill="none" />
  <path d="M 361 601.5  C 359.32 601.5  358 600.18  358 598.5  C 358 596.82  359.32 595.5  361 595.5  C 362.68 595.5  364 596.82  364 598.5  C 364 600.18  362.68 601.5  361 601.5  " fill-rule="nonzero" fill="#797979" stroke="none" />
</svg>