<?xml version="1.0" encoding="utf-8"?>
<svg version="1.1" xmlns:xlink="http://www.w3.org/1999/xlink" width="12px" height="12px" viewBox="540 592.5  12 12" xmlns="http://www.w3.org/2000/svg">
  <path d="M 546 592.5  C 549.36 592.5  552 595.14  552 598.5  C 552 601.86  549.36 604.5  546 604.5  C 542.64 604.5  540 601.86  540 598.5  C 540 595.14  542.64 592.5  546 592.5  Z " fill-rule="nonzero" fill="#ffffff" stroke="none" />
  <path d="M 546 593  C 549.08 593  551.5 595.42  551.5 598.5  C 551.5 601.58  549.08 604  546 604  C 542.92 604  540.5 601.58  540.5 598.5  C 540.5 595.42  542.92 593  546 593  Z " stroke-width="1" stroke="#797979" fill="none" />
  <path d="M 546 601.5  C 544.32 601.5  543 600.18  543 598.5  C 543 596.82  544.32 595.5  546 595.5  C 547.68 595.5  549 596.82  549 598.5  C 549 600.18  547.68 601.5  546 601.5  " fill-rule="nonzero" fill="#797979" stroke="none" />
</svg>