<?xml version="1.0" encoding="utf-8"?>
<svg version="1.1" xmlns:xlink="http://www.w3.org/1999/xlink" width="12px" height="12px" viewBox="887 592.5  12 12" xmlns="http://www.w3.org/2000/svg">
  <path d="M 893 592.5  C 896.36 592.5  899 595.14  899 598.5  C 899 601.86  896.36 604.5  893 604.5  C 889.64 604.5  887 601.86  887 598.5  C 887 595.14  889.64 592.5  893 592.5  Z " fill-rule="nonzero" fill="#f0f0f0" stroke="none" />
  <path d="M 893 593  C 896.08 593  898.5 595.42  898.5 598.5  C 898.5 601.58  896.08 604  893 604  C 889.92 604  887.5 601.58  887.5 598.5  C 887.5 595.42  889.92 593  893 593  Z " stroke-width="1" stroke="#797979" fill="none" />
  <path d="M 893 601.5  C 891.32 601.5  890 600.18  890 598.5  C 890 596.82  891.32 595.5  893 595.5  C 894.68 595.5  896 596.82  896 598.5  C 896 600.18  894.68 601.5  893 601.5  " fill-rule="nonzero" fill="#797979" stroke="none" />
</svg>