<?xml version="1.0" encoding="utf-8"?>
<svg version="1.1" xmlns:xlink="http://www.w3.org/1999/xlink" width="12px" height="12px" viewBox="355 650.5  12 12" xmlns="http://www.w3.org/2000/svg">
  <path d="M 361 650.5  C 364.36 650.5  367 653.14  367 656.5  C 367 659.86  364.36 662.5  361 662.5  C 357.64 662.5  355 659.86  355 656.5  C 355 653.14  357.64 650.5  361 650.5  Z " fill-rule="nonzero" fill="#f0f0f0" stroke="none" />
  <path d="M 361 651  C 364.08 651  366.5 653.42  366.5 656.5  C 366.5 659.58  364.08 662  361 662  C 357.92 662  355.5 659.58  355.5 656.5  C 355.5 653.42  357.92 651  361 651  Z " stroke-width="1" stroke="#797979" fill="none" />
  <path d="M 361 659.5  C 359.32 659.5  358 658.18  358 656.5  C 358 654.82  359.32 653.5  361 653.5  C 362.68 653.5  364 654.82  364 656.5  C 364 658.18  362.68 659.5  361 659.5  " fill-rule="nonzero" fill="#797979" stroke="none" />
</svg>