<?xml version="1.0" encoding="utf-8"?>
<svg version="1.1" xmlns:xlink="http://www.w3.org/1999/xlink" width="12px" height="12px" viewBox="535 650.5  12 12" xmlns="http://www.w3.org/2000/svg">
  <path d="M 541 650.5  C 544.36 650.5  547 653.14  547 656.5  C 547 659.86  544.36 662.5  541 662.5  C 537.64 662.5  535 659.86  535 656.5  C 535 653.14  537.64 650.5  541 650.5  Z " fill-rule="nonzero" fill="#f0f0f0" stroke="none" />
  <path d="M 541 651  C 544.08 651  546.5 653.42  546.5 656.5  C 546.5 659.58  544.08 662  541 662  C 537.92 662  535.5 659.58  535.5 656.5  C 535.5 653.42  537.92 651  541 651  Z " stroke-width="1" stroke="#797979" fill="none" />
  <path d="M 541 659.5  C 539.32 659.5  538 658.18  538 656.5  C 538 654.82  539.32 653.5  541 653.5  C 542.68 653.5  544 654.82  544 656.5  C 544 658.18  542.68 659.5  541 659.5  " fill-rule="nonzero" fill="#797979" stroke="none" />
</svg>