<?xml version="1.0" encoding="utf-8"?>
<svg version="1.1" xmlns:xlink="http://www.w3.org/1999/xlink" width="12px" height="12px" viewBox="715 650.5  12 12" xmlns="http://www.w3.org/2000/svg">
  <path d="M 721 650.5  C 724.36 650.5  727 653.14  727 656.5  C 727 659.86  724.36 662.5  721 662.5  C 717.64 662.5  715 659.86  715 656.5  C 715 653.14  717.64 650.5  721 650.5  Z " fill-rule="nonzero" fill="#f0f0f0" stroke="none" />
  <path d="M 721 651  C 724.08 651  726.5 653.42  726.5 656.5  C 726.5 659.58  724.08 662  721 662  C 717.92 662  715.5 659.58  715.5 656.5  C 715.5 653.42  717.92 651  721 651  Z " stroke-width="1" stroke="#797979" fill="none" />
  <path d="M 721 659.5  C 719.32 659.5  718 658.18  718 656.5  C 718 654.82  719.32 653.5  721 653.5  C 722.68 653.5  724 654.82  724 656.5  C 724 658.18  722.68 659.5  721 659.5  " fill-rule="nonzero" fill="#797979" stroke="none" />
</svg>