<?xml version="1.0" encoding="utf-8"?>
<svg version="1.1" xmlns:xlink="http://www.w3.org/1999/xlink" width="12px" height="12px" viewBox="520 708.5  12 12" xmlns="http://www.w3.org/2000/svg">
  <path d="M 526 708.5  C 529.36 708.5  532 711.14  532 714.5  C 532 717.86  529.36 720.5  526 720.5  C 522.64 720.5  520 717.86  520 714.5  C 520 711.14  522.64 708.5  526 708.5  Z " fill-rule="nonzero" fill="#ffffff" stroke="none" />
  <path d="M 526 709  C 529.08 709  531.5 711.42  531.5 714.5  C 531.5 717.58  529.08 720  526 720  C 522.92 720  520.5 717.58  520.5 714.5  C 520.5 711.42  522.92 709  526 709  Z " stroke-width="1" stroke="#797979" fill="none" />
  <path d="M 526 717.5  C 524.32 717.5  523 716.18  523 714.5  C 523 712.82  524.32 711.5  526 711.5  C 527.68 711.5  529 712.82  529 714.5  C 529 716.18  527.68 717.5  526 717.5  " fill-rule="nonzero" fill="#797979" stroke="none" />
</svg>