<?xml version="1.0" encoding="utf-8"?>
<svg version="1.1" xmlns:xlink="http://www.w3.org/1999/xlink" width="12px" height="12px" viewBox="499 766.5  12 12" xmlns="http://www.w3.org/2000/svg">
  <path d="M 505 766.5  C 508.36 766.5  511 769.14  511 772.5  C 511 775.86  508.36 778.5  505 778.5  C 501.64 778.5  499 775.86  499 772.5  C 499 769.14  501.64 766.5  505 766.5  Z " fill-rule="nonzero" fill="#f0f0f0" stroke="none" />
  <path d="M 505 767  C 508.08 767  510.5 769.42  510.5 772.5  C 510.5 775.58  508.08 778  505 778  C 501.92 778  499.5 775.58  499.5 772.5  C 499.5 769.42  501.92 767  505 767  Z " stroke-width="1" stroke="#797979" fill="none" />
  <path d="M 505 775.5  C 503.32 775.5  502 774.18  502 772.5  C 502 770.82  503.32 769.5  505 769.5  C 506.68 769.5  508 770.82  508 772.5  C 508 774.18  506.68 775.5  505 775.5  " fill-rule="nonzero" fill="#797979" stroke="none" />
</svg>