<?xml version="1.0" encoding="utf-8"?>
<svg version="1.1" xmlns:xlink="http://www.w3.org/1999/xlink" width="12px" height="12px" viewBox="1411 473.5  12 12" xmlns="http://www.w3.org/2000/svg">
  <path d="M 1417 473.5  C 1420.36 473.5  1423 476.14  1423 479.5  C 1423 482.86  1420.36 485.5  1417 485.5  C 1413.64 485.5  1411 482.86  1411 479.5  C 1411 476.14  1413.64 473.5  1417 473.5  Z " fill-rule="nonzero" fill="#ffffff" stroke="none" />
  <path d="M 1417 474  C 1420.08 474  1422.5 476.42  1422.5 479.5  C 1422.5 482.58  1420.08 485  1417 485  C 1413.92 485  1411.5 482.58  1411.5 479.5  C 1411.5 476.42  1413.92 474  1417 474  Z " stroke-width="1" stroke="#797979" fill="none" />
  <path d="M 1417 482.5  C 1415.32 482.5  1414 481.18  1414 479.5  C 1414 477.82  1415.32 476.5  1417 476.5  C 1418.68 476.5  1420 477.82  1420 479.5  C 1420 481.18  1418.68 482.5  1417 482.5  " fill-rule="nonzero" fill="#797979" stroke="none" />
</svg>