<?xml version="1.0" encoding="utf-8"?>
<svg version="1.1" xmlns:xlink="http://www.w3.org/1999/xlink" width="12px" height="12px" viewBox="731 531.5  12 12" xmlns="http://www.w3.org/2000/svg">
  <path d="M 737 531.5  C 740.36 531.5  743 534.14  743 537.5  C 743 540.86  740.36 543.5  737 543.5  C 733.64 543.5  731 540.86  731 537.5  C 731 534.14  733.64 531.5  737 531.5  Z " fill-rule="nonzero" fill="#ffffff" stroke="none" />
  <path d="M 737 532  C 740.08 532  742.5 534.42  742.5 537.5  C 742.5 540.58  740.08 543  737 543  C 733.92 543  731.5 540.58  731.5 537.5  C 731.5 534.42  733.92 532  737 532  Z " stroke-width="1" stroke="#797979" fill="none" />
  <path d="M 737 540.5  C 735.32 540.5  734 539.18  734 537.5  C 734 535.82  735.32 534.5  737 534.5  C 738.68 534.5  740 535.82  740 537.5  C 740 539.18  738.68 540.5  737 540.5  " fill-rule="nonzero" fill="#797979" stroke="none" />
</svg>