<?xml version="1.0" encoding="utf-8"?>
<svg version="1.1" xmlns:xlink="http://www.w3.org/1999/xlink" width="12px" height="12px" viewBox="942 531.5  12 12" xmlns="http://www.w3.org/2000/svg">
  <path d="M 948 531.5  C 951.36 531.5  954 534.14  954 537.5  C 954 540.86  951.36 543.5  948 543.5  C 944.64 543.5  942 540.86  942 537.5  C 942 534.14  944.64 531.5  948 531.5  Z " fill-rule="nonzero" fill="#ffffff" stroke="none" />
  <path d="M 948 532  C 951.08 532  953.5 534.42  953.5 537.5  C 953.5 540.58  951.08 543  948 543  C 944.92 543  942.5 540.58  942.5 537.5  C 942.5 534.42  944.92 532  948 532  Z " stroke-width="1" stroke="#797979" fill="none" />
  <path d="M 948 540.5  C 946.32 540.5  945 539.18  945 537.5  C 945 535.82  946.32 534.5  948 534.5  C 949.68 534.5  951 535.82  951 537.5  C 951 539.18  949.68 540.5  948 540.5  " fill-rule="nonzero" fill="#797979" stroke="none" />
</svg>