<?xml version="1.0" encoding="utf-8"?>
<svg version="1.1" xmlns:xlink="http://www.w3.org/1999/xlink" width="12px" height="12px" viewBox="1411 531.5  12 12" xmlns="http://www.w3.org/2000/svg">
  <path d="M 1417 531.5  C 1420.36 531.5  1423 534.14  1423 537.5  C 1423 540.86  1420.36 543.5  1417 543.5  C 1413.64 543.5  1411 540.86  1411 537.5  C 1411 534.14  1413.64 531.5  1417 531.5  Z " fill-rule="nonzero" fill="#f0f0f0" stroke="none" />
  <path d="M 1417 532  C 1420.08 532  1422.5 534.42  1422.5 537.5  C 1422.5 540.58  1420.08 543  1417 543  C 1413.92 543  1411.5 540.58  1411.5 537.5  C 1411.5 534.42  1413.92 532  1417 532  Z " stroke-width="1" stroke="#797979" fill="none" />
  <path d="M 1417 540.5  C 1415.32 540.5  1414 539.18  1414 537.5  C 1414 535.82  1415.32 534.5  1417 534.5  C 1418.68 534.5  1420 535.82  1420 537.5  C 1420 539.18  1418.68 540.5  1417 540.5  " fill-rule="nonzero" fill="#797979" stroke="none" />
</svg>