<?xml version="1.0" encoding="utf-8"?>
<svg version="1.1" xmlns:xlink="http://www.w3.org/1999/xlink" width="12px" height="12px" viewBox="1257 592.5  12 12" xmlns="http://www.w3.org/2000/svg">
  <path d="M 1263 592.5  C 1266.36 592.5  1269 595.14  1269 598.5  C 1269 601.86  1266.36 604.5  1263 604.5  C 1259.64 604.5  1257 601.86  1257 598.5  C 1257 595.14  1259.64 592.5  1263 592.5  Z " fill-rule="nonzero" fill="#ffffff" stroke="none" />
  <path d="M 1263 593  C 1266.08 593  1268.5 595.42  1268.5 598.5  C 1268.5 601.58  1266.08 604  1263 604  C 1259.92 604  1257.5 601.58  1257.5 598.5  C 1257.5 595.42  1259.92 593  1263 593  Z " stroke-width="1" stroke="#797979" fill="none" />
  <path d="M 1263 601.5  C 1261.32 601.5  1260 600.18  1260 598.5  C 1260 596.82  1261.32 595.5  1263 595.5  C 1264.68 595.5  1266 596.82  1266 598.5  C 1266 600.18  1264.68 601.5  1263 601.5  " fill-rule="nonzero" fill="#797979" stroke="none" />
</svg>