<?xml version="1.0" encoding="utf-8"?>
<svg version="1.1" xmlns:xlink="http://www.w3.org/1999/xlink" width="12px" height="12px" viewBox="644 766.5  12 12" xmlns="http://www.w3.org/2000/svg">
  <path d="M 650 766.5  C 653.36 766.5  656 769.14  656 772.5  C 656 775.86  653.36 778.5  650 778.5  C 646.64 778.5  644 775.86  644 772.5  C 644 769.14  646.64 766.5  650 766.5  Z " fill-rule="nonzero" fill="#f0f0f0" stroke="none" />
  <path d="M 650 767  C 653.08 767  655.5 769.42  655.5 772.5  C 655.5 775.58  653.08 778  650 778  C 646.92 778  644.5 775.58  644.5 772.5  C 644.5 769.42  646.92 767  650 767  Z " stroke-width="1" stroke="#797979" fill="none" />
  <path d="M 650 775.5  C 648.32 775.5  647 774.18  647 772.5  C 647 770.82  648.32 769.5  650 769.5  C 651.68 769.5  653 770.82  653 772.5  C 653 774.18  651.68 775.5  650 775.5  " fill-rule="nonzero" fill="#797979" stroke="none" />
</svg>