<?xml version="1.0" encoding="utf-8"?>
<svg version="1.1" xmlns:xlink="http://www.w3.org/1999/xlink" width="80px" height="64px" xmlns="http://www.w3.org/2000/svg">
  <g transform="matrix(1 0 0 1 -566 -347 )">
    <path d="M 78.5548387096774 8.83501683501684  C 79.5182795698925 9.84062850729517  80 11.0617283950617  80 12.4983164983165  C 80 13.9349046015713  79.5182795698925 15.1560044893378  78.5548387096774 16.1616161616162  L 41.1870967741935 55.1649831649832  L 34.1677419354839 62.4915824915825  C 33.2043010752688 63.4971941638608  32.0344086021505 64  30.658064516129 64  C 29.2817204301075 64  28.1118279569893 63.4971941638608  27.1483870967742 62.4915824915825  L 20.1290322580645 55.1649831649832  L 1.44516129032258 35.6632996632997  C 0.481720430107527 34.6576879910213  0 33.4365881032548  0 32  C 0 30.5634118967452  0.481720430107527 29.3423120089787  1.44516129032258 28.3367003367003  L 8.46451612903226 21.010101010101  C 9.42795698924731 20.0044893378227  10.5978494623656 19.5016835016835  11.9741935483871 19.5016835016835  C 13.3505376344086 19.5016835016835  14.5204301075269 20.0044893378227  15.4838709677419 21.010101010101  L 30.658064516129 36.9023569023569  L 64.5161290322581 1.50841750841751  C 65.4795698924731 0.502805836139167  66.6494623655914 0  68.0258064516129 0  C 69.4021505376344 0  70.5720430107527 0.502805836139167  71.5354838709677 1.50841750841751  L 78.5548387096774 8.83501683501684  Z " fill-rule="nonzero" fill="#ffffff" stroke="none" transform="matrix(1 0 0 1 566 347 )" />
  </g>
</svg>