<?xml version="1.0" encoding="utf-8"?>
<svg version="1.1" xmlns:xlink="http://www.w3.org/1999/xlink" width="12px" height="12px" viewBox="539 490.5  12 12" xmlns="http://www.w3.org/2000/svg">
  <path d="M 545 490.5  C 548.36 490.5  551 493.14  551 496.5  C 551 499.86  548.36 502.5  545 502.5  C 541.64 502.5  539 499.86  539 496.5  C 539 493.14  541.64 490.5  545 490.5  Z " fill-rule="nonzero" fill="#f0f0f0" stroke="none" />
  <path d="M 545 491  C 548.08 491  550.5 493.42  550.5 496.5  C 550.5 499.58  548.08 502  545 502  C 541.92 502  539.5 499.58  539.5 496.5  C 539.5 493.42  541.92 491  545 491  Z " stroke-width="1" stroke="#797979" fill="none" />
  <path d="M 545 499.5  C 543.32 499.5  542 498.18  542 496.5  C 542 494.82  543.32 493.5  545 493.5  C 546.68 493.5  548 494.82  548 496.5  C 548 498.18  546.68 499.5  545 499.5  " fill-rule="nonzero" fill="#797979" stroke="none" />
</svg>