<?xml version="1.0" encoding="utf-8"?>
<svg version="1.1" xmlns:xlink="http://www.w3.org/1999/xlink" width="12px" height="12px" viewBox="1041 490.5  12 12" xmlns="http://www.w3.org/2000/svg">
  <path d="M 1047 490.5  C 1050.36 490.5  1053 493.14  1053 496.5  C 1053 499.86  1050.36 502.5  1047 502.5  C 1043.64 502.5  1041 499.86  1041 496.5  C 1041 493.14  1043.64 490.5  1047 490.5  Z " fill-rule="nonzero" fill="#ffffff" stroke="none" />
  <path d="M 1047 491  C 1050.08 491  1052.5 493.42  1052.5 496.5  C 1052.5 499.58  1050.08 502  1047 502  C 1043.92 502  1041.5 499.58  1041.5 496.5  C 1041.5 493.42  1043.92 491  1047 491  Z " stroke-width="1" stroke="#797979" fill="none" />
  <path d="M 1047 499.5  C 1045.32 499.5  1044 498.18  1044 496.5  C 1044 494.82  1045.32 493.5  1047 493.5  C 1048.68 493.5  1050 494.82  1050 496.5  C 1050 498.18  1048.68 499.5  1047 499.5  " fill-rule="nonzero" fill="#797979" stroke="none" />
</svg>