<?xml version="1.0" encoding="utf-8"?>
<svg version="1.1" xmlns:xlink="http://www.w3.org/1999/xlink" width="12px" height="12px" viewBox="861 490.5  12 12" xmlns="http://www.w3.org/2000/svg">
  <path d="M 867 490.5  C 870.36 490.5  873 493.14  873 496.5  C 873 499.86  870.36 502.5  867 502.5  C 863.64 502.5  861 499.86  861 496.5  C 861 493.14  863.64 490.5  867 490.5  Z " fill-rule="nonzero" fill="#f0f0f0" stroke="none" />
  <path d="M 867 491  C 870.08 491  872.5 493.42  872.5 496.5  C 872.5 499.58  870.08 502  867 502  C 863.92 502  861.5 499.58  861.5 496.5  C 861.5 493.42  863.92 491  867 491  Z " stroke-width="1" stroke="#797979" fill="none" />
  <path d="M 867 499.5  C 865.32 499.5  864 498.18  864 496.5  C 864 494.82  865.32 493.5  867 493.5  C 868.68 493.5  870 494.82  870 496.5  C 870 498.18  868.68 499.5  867 499.5  " fill-rule="nonzero" fill="#797979" stroke="none" />
</svg>