<?xml version="1.0" encoding="utf-8"?>
<svg version="1.1" xmlns:xlink="http://www.w3.org/1999/xlink" width="12px" height="12px" viewBox="1401 490.5  12 12" xmlns="http://www.w3.org/2000/svg">
  <path d="M 1407 490.5  C 1410.36 490.5  1413 493.14  1413 496.5  C 1413 499.86  1410.36 502.5  1407 502.5  C 1403.64 502.5  1401 499.86  1401 496.5  C 1401 493.14  1403.64 490.5  1407 490.5  Z " fill-rule="nonzero" fill="#ffffff" stroke="none" />
  <path d="M 1407 491  C 1410.08 491  1412.5 493.42  1412.5 496.5  C 1412.5 499.58  1410.08 502  1407 502  C 1403.92 502  1401.5 499.58  1401.5 496.5  C 1401.5 493.42  1403.92 491  1407 491  Z " stroke-width="1" stroke="#797979" fill="none" />
  <path d="M 1407 499.5  C 1405.32 499.5  1404 498.18  1404 496.5  C 1404 494.82  1405.32 493.5  1407 493.5  C 1408.68 493.5  1410 494.82  1410 496.5  C 1410 498.18  1408.68 499.5  1407 499.5  " fill-rule="nonzero" fill="#797979" stroke="none" />
</svg>