<?xml version="1.0" encoding="utf-8"?>
<svg version="1.1" xmlns:xlink="http://www.w3.org/1999/xlink" width="12px" height="12px" viewBox="681 490.5  12 12" xmlns="http://www.w3.org/2000/svg">
  <path d="M 687 490.5  C 690.36 490.5  693 493.14  693 496.5  C 693 499.86  690.36 502.5  687 502.5  C 683.64 502.5  681 499.86  681 496.5  C 681 493.14  683.64 490.5  687 490.5  Z " fill-rule="nonzero" fill="#f0f0f0" stroke="none" />
  <path d="M 687 491  C 690.08 491  692.5 493.42  692.5 496.5  C 692.5 499.58  690.08 502  687 502  C 683.92 502  681.5 499.58  681.5 496.5  C 681.5 493.42  683.92 491  687 491  Z " stroke-width="1" stroke="#797979" fill="none" />
  <path d="M 687 499.5  C 685.32 499.5  684 498.18  684 496.5  C 684 494.82  685.32 493.5  687 493.5  C 688.68 493.5  690 494.82  690 496.5  C 690 498.18  688.68 499.5  687 499.5  " fill-rule="nonzero" fill="#797979" stroke="none" />
</svg>