<?xml version="1.0" encoding="utf-8"?>
<svg version="1.1" xmlns:xlink="http://www.w3.org/1999/xlink" width="12px" height="12px" viewBox="823 547.5  12 12" xmlns="http://www.w3.org/2000/svg">
  <path d="M 829 547.5  C 832.36 547.5  835 550.14  835 553.5  C 835 556.86  832.36 559.5  829 559.5  C 825.64 559.5  823 556.86  823 553.5  C 823 550.14  825.64 547.5  829 547.5  Z " fill-rule="nonzero" fill="#ffffff" stroke="none" />
  <path d="M 829 548  C 832.08 548  834.5 550.42  834.5 553.5  C 834.5 556.58  832.08 559  829 559  C 825.92 559  823.5 556.58  823.5 553.5  C 823.5 550.42  825.92 548  829 548  Z " stroke-width="1" stroke="#797979" fill="none" />
  <path d="M 829 556.5  C 827.32 556.5  826 555.18  826 553.5  C 826 551.82  827.32 550.5  829 550.5  C 830.68 550.5  832 551.82  832 553.5  C 832 555.18  830.68 556.5  829 556.5  " fill-rule="nonzero" fill="#797979" stroke="none" />
</svg>