<?xml version="1.0" encoding="utf-8"?>
<svg version="1.1" xmlns:xlink="http://www.w3.org/1999/xlink" width="12px" height="12px" viewBox="539 603.5  12 12" xmlns="http://www.w3.org/2000/svg">
  <path d="M 545 603.5  C 548.36 603.5  551 606.14  551 609.5  C 551 612.86  548.36 615.5  545 615.5  C 541.64 615.5  539 612.86  539 609.5  C 539 606.14  541.64 603.5  545 603.5  Z " fill-rule="nonzero" fill="#ffffff" stroke="none" />
  <path d="M 545 604  C 548.08 604  550.5 606.42  550.5 609.5  C 550.5 612.58  548.08 615  545 615  C 541.92 615  539.5 612.58  539.5 609.5  C 539.5 606.42  541.92 604  545 604  Z " stroke-width="1" stroke="#797979" fill="none" />
  <path d="M 545 612.5  C 543.32 612.5  542 611.18  542 609.5  C 542 607.82  543.32 606.5  545 606.5  C 546.68 606.5  548 607.82  548 609.5  C 548 611.18  546.68 612.5  545 612.5  " fill-rule="nonzero" fill="#797979" stroke="none" />
</svg>