<?xml version="1.0" encoding="utf-8"?>
<svg version="1.1" xmlns:xlink="http://www.w3.org/1999/xlink" width="12px" height="12px" viewBox="681 603.5  12 12" xmlns="http://www.w3.org/2000/svg">
  <path d="M 687 603.5  C 690.36 603.5  693 606.14  693 609.5  C 693 612.86  690.36 615.5  687 615.5  C 683.64 615.5  681 612.86  681 609.5  C 681 606.14  683.64 603.5  687 603.5  Z " fill-rule="nonzero" fill="#ffffff" stroke="none" />
  <path d="M 687 604  C 690.08 604  692.5 606.42  692.5 609.5  C 692.5 612.58  690.08 615  687 615  C 683.92 615  681.5 612.58  681.5 609.5  C 681.5 606.42  683.92 604  687 604  Z " stroke-width="1" stroke="#797979" fill="none" />
  <path d="M 687 612.5  C 685.32 612.5  684 611.18  684 609.5  C 684 607.82  685.32 606.5  687 606.5  C 688.68 606.5  690 607.82  690 609.5  C 690 611.18  688.68 612.5  687 612.5  " fill-rule="nonzero" fill="#797979" stroke="none" />
</svg>