<?xml version="1.0" encoding="utf-8"?>
<svg version="1.1" xmlns:xlink="http://www.w3.org/1999/xlink" width="12px" height="12px" viewBox="848 603.5  12 12" xmlns="http://www.w3.org/2000/svg">
  <path d="M 854 603.5  C 857.36 603.5  860 606.14  860 609.5  C 860 612.86  857.36 615.5  854 615.5  C 850.64 615.5  848 612.86  848 609.5  C 848 606.14  850.64 603.5  854 603.5  Z " fill-rule="nonzero" fill="#ffffff" stroke="none" />
  <path d="M 854 604  C 857.08 604  859.5 606.42  859.5 609.5  C 859.5 612.58  857.08 615  854 615  C 850.92 615  848.5 612.58  848.5 609.5  C 848.5 606.42  850.92 604  854 604  Z " stroke-width="1" stroke="#797979" fill="none" />
  <path d="M 854 612.5  C 852.32 612.5  851 611.18  851 609.5  C 851 607.82  852.32 606.5  854 606.5  C 855.68 606.5  857 607.82  857 609.5  C 857 611.18  855.68 612.5  854 612.5  " fill-rule="nonzero" fill="#797979" stroke="none" />
</svg>