<?xml version="1.0" encoding="utf-8"?>
<svg version="1.1" xmlns:xlink="http://www.w3.org/1999/xlink" width="12px" height="12px" viewBox="1041 603.5  12 12" xmlns="http://www.w3.org/2000/svg">
  <path d="M 1047 603.5  C 1050.36 603.5  1053 606.14  1053 609.5  C 1053 612.86  1050.36 615.5  1047 615.5  C 1043.64 615.5  1041 612.86  1041 609.5  C 1041 606.14  1043.64 603.5  1047 603.5  Z " fill-rule="nonzero" fill="#f0f0f0" stroke="none" />
  <path d="M 1047 604  C 1050.08 604  1052.5 606.42  1052.5 609.5  C 1052.5 612.58  1050.08 615  1047 615  C 1043.92 615  1041.5 612.58  1041.5 609.5  C 1041.5 606.42  1043.92 604  1047 604  Z " stroke-width="1" stroke="#797979" fill="none" />
  <path d="M 1047 612.5  C 1045.32 612.5  1044 611.18  1044 609.5  C 1044 607.82  1045.32 606.5  1047 606.5  C 1048.68 606.5  1050 607.82  1050 609.5  C 1050 611.18  1048.68 612.5  1047 612.5  " fill-rule="nonzero" fill="#797979" stroke="none" />
</svg>