<?xml version="1.0" encoding="utf-8"?>
<svg version="1.1" xmlns:xlink="http://www.w3.org/1999/xlink" width="12px" height="12px" viewBox="1427 603.5  12 12" xmlns="http://www.w3.org/2000/svg">
  <path d="M 1433 603.5  C 1436.36 603.5  1439 606.14  1439 609.5  C 1439 612.86  1436.36 615.5  1433 615.5  C 1429.64 615.5  1427 612.86  1427 609.5  C 1427 606.14  1429.64 603.5  1433 603.5  Z " fill-rule="nonzero" fill="#ffffff" stroke="none" />
  <path d="M 1433 604  C 1436.08 604  1438.5 606.42  1438.5 609.5  C 1438.5 612.58  1436.08 615  1433 615  C 1429.92 615  1427.5 612.58  1427.5 609.5  C 1427.5 606.42  1429.92 604  1433 604  Z " stroke-width="1" stroke="#797979" fill="none" />
  <path d="M 1433 612.5  C 1431.32 612.5  1430 611.18  1430 609.5  C 1430 607.82  1431.32 606.5  1433 606.5  C 1434.68 606.5  1436 607.82  1436 609.5  C 1436 611.18  1434.68 612.5  1433 612.5  " fill-rule="nonzero" fill="#797979" stroke="none" />
</svg>