<?xml version="1.0" encoding="utf-8"?>
<svg version="1.1" xmlns:xlink="http://www.w3.org/1999/xlink" width="12px" height="12px" viewBox="539 661.5  12 12" xmlns="http://www.w3.org/2000/svg">
  <path d="M 545 661.5  C 548.36 661.5  551 664.14  551 667.5  C 551 670.86  548.36 673.5  545 673.5  C 541.64 673.5  539 670.86  539 667.5  C 539 664.14  541.64 661.5  545 661.5  Z " fill-rule="nonzero" fill="#f0f0f0" stroke="none" />
  <path d="M 545 662  C 548.08 662  550.5 664.42  550.5 667.5  C 550.5 670.58  548.08 673  545 673  C 541.92 673  539.5 670.58  539.5 667.5  C 539.5 664.42  541.92 662  545 662  Z " stroke-width="1" stroke="#797979" fill="none" />
  <path d="M 545 670.5  C 543.32 670.5  542 669.18  542 667.5  C 542 665.82  543.32 664.5  545 664.5  C 546.68 664.5  548 665.82  548 667.5  C 548 669.18  546.68 670.5  545 670.5  " fill-rule="nonzero" fill="#797979" stroke="none" />
</svg>