<?xml version="1.0" encoding="utf-8"?>
<svg version="1.1" xmlns:xlink="http://www.w3.org/1999/xlink" width="12px" height="12px" viewBox="1107 661.5  12 12" xmlns="http://www.w3.org/2000/svg">
  <path d="M 1113 661.5  C 1116.36 661.5  1119 664.14  1119 667.5  C 1119 670.86  1116.36 673.5  1113 673.5  C 1109.64 673.5  1107 670.86  1107 667.5  C 1107 664.14  1109.64 661.5  1113 661.5  Z " fill-rule="nonzero" fill="#ffffff" stroke="none" />
  <path d="M 1113 662  C 1116.08 662  1118.5 664.42  1118.5 667.5  C 1118.5 670.58  1116.08 673  1113 673  C 1109.92 673  1107.5 670.58  1107.5 667.5  C 1107.5 664.42  1109.92 662  1113 662  Z " stroke-width="1" stroke="#797979" fill="none" />
  <path d="M 1113 670.5  C 1111.32 670.5  1110 669.18  1110 667.5  C 1110 665.82  1111.32 664.5  1113 664.5  C 1114.68 664.5  1116 665.82  1116 667.5  C 1116 669.18  1114.68 670.5  1113 670.5  " fill-rule="nonzero" fill="#797979" stroke="none" />
</svg>