<?xml version="1.0" encoding="utf-8"?>
<svg version="1.1" xmlns:xlink="http://www.w3.org/1999/xlink" width="12px" height="12px" viewBox="823 661.5  12 12" xmlns="http://www.w3.org/2000/svg">
  <path d="M 829 661.5  C 832.36 661.5  835 664.14  835 667.5  C 835 670.86  832.36 673.5  829 673.5  C 825.64 673.5  823 670.86  823 667.5  C 823 664.14  825.64 661.5  829 661.5  Z " fill-rule="nonzero" fill="#f0f0f0" stroke="none" />
  <path d="M 829 662  C 832.08 662  834.5 664.42  834.5 667.5  C 834.5 670.58  832.08 673  829 673  C 825.92 673  823.5 670.58  823.5 667.5  C 823.5 664.42  825.92 662  829 662  Z " stroke-width="1" stroke="#797979" fill="none" />
  <path d="M 829 670.5  C 827.32 670.5  826 669.18  826 667.5  C 826 665.82  827.32 664.5  829 664.5  C 830.68 664.5  832 665.82  832 667.5  C 832 669.18  830.68 670.5  829 670.5  " fill-rule="nonzero" fill="#797979" stroke="none" />
</svg>