<?xml version="1.0" encoding="utf-8"?>
<svg version="1.1" xmlns:xlink="http://www.w3.org/1999/xlink" width="12px" height="12px" viewBox="539 722.5  12 12" xmlns="http://www.w3.org/2000/svg">
  <path d="M 545 722.5  C 548.36 722.5  551 725.14  551 728.5  C 551 731.86  548.36 734.5  545 734.5  C 541.64 734.5  539 731.86  539 728.5  C 539 725.14  541.64 722.5  545 722.5  Z " fill-rule="nonzero" fill="#f0f0f0" stroke="none" />
  <path d="M 545 723  C 548.08 723  550.5 725.42  550.5 728.5  C 550.5 731.58  548.08 734  545 734  C 541.92 734  539.5 731.58  539.5 728.5  C 539.5 725.42  541.92 723  545 723  Z " stroke-width="1" stroke="#797979" fill="none" />
  <path d="M 545 731.5  C 543.32 731.5  542 730.18  542 728.5  C 542 726.82  543.32 725.5  545 725.5  C 546.68 725.5  548 726.82  548 728.5  C 548 730.18  546.68 731.5  545 731.5  " fill-rule="nonzero" fill="#797979" stroke="none" />
</svg>