<?xml version="1.0" encoding="utf-8"?>
<svg version="1.1" xmlns:xlink="http://www.w3.org/1999/xlink" width="12px" height="12px" viewBox="660 722.5  12 12" xmlns="http://www.w3.org/2000/svg">
  <path d="M 666 722.5  C 669.36 722.5  672 725.14  672 728.5  C 672 731.86  669.36 734.5  666 734.5  C 662.64 734.5  660 731.86  660 728.5  C 660 725.14  662.64 722.5  666 722.5  Z " fill-rule="nonzero" fill="#f0f0f0" stroke="none" />
  <path d="M 666 723  C 669.08 723  671.5 725.42  671.5 728.5  C 671.5 731.58  669.08 734  666 734  C 662.92 734  660.5 731.58  660.5 728.5  C 660.5 725.42  662.92 723  666 723  Z " stroke-width="1" stroke="#797979" fill="none" />
  <path d="M 666 731.5  C 664.32 731.5  663 730.18  663 728.5  C 663 726.82  664.32 725.5  666 725.5  C 667.68 725.5  669 726.82  669 728.5  C 669 730.18  667.68 731.5  666 731.5  " fill-rule="nonzero" fill="#797979" stroke="none" />
</svg>