<?xml version="1.0" encoding="utf-8"?>
<svg version="1.1" xmlns:xlink="http://www.w3.org/1999/xlink" width="12px" height="12px" viewBox="902 722.5  12 12" xmlns="http://www.w3.org/2000/svg">
  <path d="M 908 722.5  C 911.36 722.5  914 725.14  914 728.5  C 914 731.86  911.36 734.5  908 734.5  C 904.64 734.5  902 731.86  902 728.5  C 902 725.14  904.64 722.5  908 722.5  Z " fill-rule="nonzero" fill="#f0f0f0" stroke="none" />
  <path d="M 908 723  C 911.08 723  913.5 725.42  913.5 728.5  C 913.5 731.58  911.08 734  908 734  C 904.92 734  902.5 731.58  902.5 728.5  C 902.5 725.42  904.92 723  908 723  Z " stroke-width="1" stroke="#797979" fill="none" />
  <path d="M 908 731.5  C 906.32 731.5  905 730.18  905 728.5  C 905 726.82  906.32 725.5  908 725.5  C 909.68 725.5  911 726.82  911 728.5  C 911 730.18  909.68 731.5  908 731.5  " fill-rule="nonzero" fill="#797979" stroke="none" />
</svg>