<?xml version="1.0" encoding="utf-8"?>
<svg version="1.1" xmlns:xlink="http://www.w3.org/1999/xlink" width="12px" height="12px" viewBox="781 722.5  12 12" xmlns="http://www.w3.org/2000/svg">
  <path d="M 787 722.5  C 790.36 722.5  793 725.14  793 728.5  C 793 731.86  790.36 734.5  787 734.5  C 783.64 734.5  781 731.86  781 728.5  C 781 725.14  783.64 722.5  787 722.5  Z " fill-rule="nonzero" fill="#f0f0f0" stroke="none" />
  <path d="M 787 723  C 790.08 723  792.5 725.42  792.5 728.5  C 792.5 731.58  790.08 734  787 734  C 783.92 734  781.5 731.58  781.5 728.5  C 781.5 725.42  783.92 723  787 723  Z " stroke-width="1" stroke="#797979" fill="none" />
  <path d="M 787 731.5  C 785.32 731.5  784 730.18  784 728.5  C 784 726.82  785.32 725.5  787 725.5  C 788.68 725.5  790 726.82  790 728.5  C 790 730.18  788.68 731.5  787 731.5  " fill-rule="nonzero" fill="#797979" stroke="none" />
</svg>