<?xml version="1.0" encoding="utf-8"?>
<svg version="1.1" xmlns:xlink="http://www.w3.org/1999/xlink" width="12px" height="12px" viewBox="539 780.5  12 12" xmlns="http://www.w3.org/2000/svg">
  <path d="M 545 780.5  C 548.36 780.5  551 783.14  551 786.5  C 551 789.86  548.36 792.5  545 792.5  C 541.64 792.5  539 789.86  539 786.5  C 539 783.14  541.64 780.5  545 780.5  Z " fill-rule="nonzero" fill="#f0f0f0" stroke="none" />
  <path d="M 545 781  C 548.08 781  550.5 783.42  550.5 786.5  C 550.5 789.58  548.08 792  545 792  C 541.92 792  539.5 789.58  539.5 786.5  C 539.5 783.42  541.92 781  545 781  Z " stroke-width="1" stroke="#797979" fill="none" />
  <path d="M 545 789.5  C 543.32 789.5  542 788.18  542 786.5  C 542 784.82  543.32 783.5  545 783.5  C 546.68 783.5  548 784.82  548 786.5  C 548 788.18  546.68 789.5  545 789.5  " fill-rule="nonzero" fill="#797979" stroke="none" />
</svg>