<?xml version="1.0" encoding="utf-8"?>
<svg version="1.1" xmlns:xlink="http://www.w3.org/1999/xlink" width="12px" height="12px" viewBox="681 777.5  12 12" xmlns="http://www.w3.org/2000/svg">
  <path d="M 687 777.5  C 690.36 777.5  693 780.14  693 783.5  C 693 786.86  690.36 789.5  687 789.5  C 683.64 789.5  681 786.86  681 783.5  C 681 780.14  683.64 777.5  687 777.5  Z " fill-rule="nonzero" fill="#f0f0f0" stroke="none" />
  <path d="M 687 778  C 690.08 778  692.5 780.42  692.5 783.5  C 692.5 786.58  690.08 789  687 789  C 683.92 789  681.5 786.58  681.5 783.5  C 681.5 780.42  683.92 778  687 778  Z " stroke-width="1" stroke="#797979" fill="none" />
  <path d="M 687 786.5  C 685.32 786.5  684 785.18  684 783.5  C 684 781.82  685.32 780.5  687 780.5  C 688.68 780.5  690 781.82  690 783.5  C 690 785.18  688.68 786.5  687 786.5  " fill-rule="nonzero" fill="#797979" stroke="none" />
</svg>