<?xml version="1.0" encoding="utf-8"?>
<svg version="1.1" xmlns:xlink="http://www.w3.org/1999/xlink" width="12px" height="12px" viewBox="823 777.5  12 12" xmlns="http://www.w3.org/2000/svg">
  <path d="M 829 777.5  C 832.36 777.5  835 780.14  835 783.5  C 835 786.86  832.36 789.5  829 789.5  C 825.64 789.5  823 786.86  823 783.5  C 823 780.14  825.64 777.5  829 777.5  Z " fill-rule="nonzero" fill="#f0f0f0" stroke="none" />
  <path d="M 829 778  C 832.08 778  834.5 780.42  834.5 783.5  C 834.5 786.58  832.08 789  829 789  C 825.92 789  823.5 786.58  823.5 783.5  C 823.5 780.42  825.92 778  829 778  Z " stroke-width="1" stroke="#797979" fill="none" />
  <path d="M 829 786.5  C 827.32 786.5  826 785.18  826 783.5  C 826 781.82  827.32 780.5  829 780.5  C 830.68 780.5  832 781.82  832 783.5  C 832 785.18  830.68 786.5  829 786.5  " fill-rule="nonzero" fill="#797979" stroke="none" />
</svg>