<?xml version="1.0" encoding="utf-8"?>
<svg version="1.1" xmlns:xlink="http://www.w3.org/1999/xlink" width="12px" height="12px" viewBox="539 838.5  12 12" xmlns="http://www.w3.org/2000/svg">
  <path d="M 545 838.5  C 548.36 838.5  551 841.14  551 844.5  C 551 847.86  548.36 850.5  545 850.5  C 541.64 850.5  539 847.86  539 844.5  C 539 841.14  541.64 838.5  545 838.5  Z " fill-rule="nonzero" fill="#f0f0f0" stroke="none" />
  <path d="M 545 839  C 548.08 839  550.5 841.42  550.5 844.5  C 550.5 847.58  548.08 850  545 850  C 541.92 850  539.5 847.58  539.5 844.5  C 539.5 841.42  541.92 839  545 839  Z " stroke-width="1" stroke="#797979" fill="none" />
  <path d="M 545 847.5  C 543.32 847.5  542 846.18  542 844.5  C 542 842.82  543.32 841.5  545 841.5  C 546.68 841.5  548 842.82  548 844.5  C 548 846.18  546.68 847.5  545 847.5  " fill-rule="nonzero" fill="#797979" stroke="none" />
</svg>