<?xml version="1.0" encoding="utf-8"?>
<svg version="1.1" xmlns:xlink="http://www.w3.org/1999/xlink" width="12px" height="12px" viewBox="704 838.5  12 12" xmlns="http://www.w3.org/2000/svg">
  <path d="M 710 838.5  C 713.36 838.5  716 841.14  716 844.5  C 716 847.86  713.36 850.5  710 850.5  C 706.64 850.5  704 847.86  704 844.5  C 704 841.14  706.64 838.5  710 838.5  Z " fill-rule="nonzero" fill="#ffffff" stroke="none" />
  <path d="M 710 839  C 713.08 839  715.5 841.42  715.5 844.5  C 715.5 847.58  713.08 850  710 850  C 706.92 850  704.5 847.58  704.5 844.5  C 704.5 841.42  706.92 839  710 839  Z " stroke-width="1" stroke="#797979" fill="none" />
  <path d="M 710 847.5  C 708.32 847.5  707 846.18  707 844.5  C 707 842.82  708.32 841.5  710 841.5  C 711.68 841.5  713 842.82  713 844.5  C 713 846.18  711.68 847.5  710 847.5  " fill-rule="nonzero" fill="#797979" stroke="none" />
</svg>