<?xml version="1.0" encoding="utf-8"?>
<svg version="1.1" xmlns:xlink="http://www.w3.org/1999/xlink" width="98px" height="33px" xmlns="http://www.w3.org/2000/svg">
  <defs>
    <mask fill="white" id="clip1">
      <path d="M 0 33  L 0 0  L 98 0  L 98 33  L 67.5000000000025 33  L 37.5000000000006 33  L 0 33  Z " fill-rule="evenodd" />
    </mask>
  </defs>
  <g transform="matrix(1 0 0 1 -992 -1318 )">
    <path d="M 0 33  L 0 0  L 98 0  L 98 33  L 67.5000000000025 33  L 37.5000000000006 33  L 0 33  Z " fill-rule="nonzero" fill="#ffffff" stroke="none" transform="matrix(1 0 0 1 992 1318 )" />
    <path d="M 0 33  L 0 0  L 98 0  L 98 33  L 67.5000000000025 33  L 37.5000000000006 33  L 0 33  Z " stroke-width="2" stroke="#797979" fill="none" transform="matrix(1 0 0 1 992 1318 )" mask="url(#clip1)" />
  </g>
</svg>