<?xml version="1.0" encoding="utf-8"?>
<svg version="1.1" xmlns:xlink="http://www.w3.org/1999/xlink" width="12px" height="12px" viewBox="539 896.5  12 12" xmlns="http://www.w3.org/2000/svg">
  <path d="M 545 896.5  C 548.36 896.5  551 899.14  551 902.5  C 551 905.86  548.36 908.5  545 908.5  C 541.64 908.5  539 905.86  539 902.5  C 539 899.14  541.64 896.5  545 896.5  Z " fill-rule="nonzero" fill="#ffffff" stroke="none" />
  <path d="M 545 897  C 548.08 897  550.5 899.42  550.5 902.5  C 550.5 905.58  548.08 908  545 908  C 541.92 908  539.5 905.58  539.5 902.5  C 539.5 899.42  541.92 897  545 897  Z " stroke-width="1" stroke="#797979" fill="none" />
  <path d="M 545 905.5  C 543.32 905.5  542 904.18  542 902.5  C 542 900.82  543.32 899.5  545 899.5  C 546.68 899.5  548 900.82  548 902.5  C 548 904.18  546.68 905.5  545 905.5  " fill-rule="nonzero" fill="#797979" stroke="none" />
</svg>