<?xml version="1.0" encoding="utf-8"?>
<svg version="1.1" xmlns:xlink="http://www.w3.org/1999/xlink" width="12px" height="12px" viewBox="704 896.5  12 12" xmlns="http://www.w3.org/2000/svg">
  <path d="M 710 896.5  C 713.36 896.5  716 899.14  716 902.5  C 716 905.86  713.36 908.5  710 908.5  C 706.64 908.5  704 905.86  704 902.5  C 704 899.14  706.64 896.5  710 896.5  Z " fill-rule="nonzero" fill="#ffffff" stroke="none" />
  <path d="M 710 897  C 713.08 897  715.5 899.42  715.5 902.5  C 715.5 905.58  713.08 908  710 908  C 706.92 908  704.5 905.58  704.5 902.5  C 704.5 899.42  706.92 897  710 897  Z " stroke-width="1" stroke="#797979" fill="none" />
  <path d="M 710 905.5  C 708.32 905.5  707 904.18  707 902.5  C 707 900.82  708.32 899.5  710 899.5  C 711.68 899.5  713 900.82  713 902.5  C 713 904.18  711.68 905.5  710 905.5  " fill-rule="nonzero" fill="#797979" stroke="none" />
</svg>