<?xml version="1.0" encoding="utf-8"?>
<svg version="1.1" xmlns:xlink="http://www.w3.org/1999/xlink" width="12px" height="12px" viewBox="246 312  12 12" xmlns="http://www.w3.org/2000/svg">
  <path d="M 252 312  C 255.36 312  258 314.64  258 318  C 258 321.36  255.36 324  252 324  C 248.64 324  246 321.36  246 318  C 246 314.64  248.64 312  252 312  Z " fill-rule="nonzero" fill="#ffffff" stroke="none" />
  <path d="M 252 312.5  C 255.08 312.5  257.5 314.92  257.5 318  C 257.5 321.08  255.08 323.5  252 323.5  C 248.92 323.5  246.5 321.08  246.5 318  C 246.5 314.92  248.92 312.5  252 312.5  Z " stroke-width="1" stroke="#797979" fill="none" />
  <path d="M 252 321  C 250.32 321  249 319.68  249 318  C 249 316.32  250.32 315  252 315  C 253.68 315  255 316.32  255 318  C 255 319.68  253.68 321  252 321  " fill-rule="nonzero" fill="#797979" stroke="none" />
</svg>