<?xml version="1.0" encoding="utf-8"?>
<svg version="1.1" xmlns:xlink="http://www.w3.org/1999/xlink" width="12px" height="12px" viewBox="458 379  12 12" xmlns="http://www.w3.org/2000/svg">
  <path d="M 464 379  C 467.36 379  470 381.64  470 385  C 470 388.36  467.36 391  464 391  C 460.64 391  458 388.36  458 385  C 458 381.64  460.64 379  464 379  Z " fill-rule="nonzero" fill="#ffffff" stroke="none" />
  <path d="M 464 379.5  C 467.08 379.5  469.5 381.92  469.5 385  C 469.5 388.08  467.08 390.5  464 390.5  C 460.92 390.5  458.5 388.08  458.5 385  C 458.5 381.92  460.92 379.5  464 379.5  Z " stroke-width="1" stroke="#797979" fill="none" />
  <path d="M 464 388  C 462.32 388  461 386.68  461 385  C 461 383.32  462.32 382  464 382  C 465.68 382  467 383.32  467 385  C 467 386.68  465.68 388  464 388  " fill-rule="nonzero" fill="#797979" stroke="none" />
</svg>