<?xml version="1.0" encoding="utf-8"?>
<svg version="1.1" xmlns:xlink="http://www.w3.org/1999/xlink" width="12px" height="12px" viewBox="375 379  12 12" xmlns="http://www.w3.org/2000/svg">
  <path d="M 381 379  C 384.36 379  387 381.64  387 385  C 387 388.36  384.36 391  381 391  C 377.64 391  375 388.36  375 385  C 375 381.64  377.64 379  381 379  Z " fill-rule="nonzero" fill="#f0f0f0" stroke="none" />
  <path d="M 381 379.5  C 384.08 379.5  386.5 381.92  386.5 385  C 386.5 388.08  384.08 390.5  381 390.5  C 377.92 390.5  375.5 388.08  375.5 385  C 375.5 381.92  377.92 379.5  381 379.5  Z " stroke-width="1" stroke="#797979" fill="none" />
  <path d="M 381 388  C 379.32 388  378 386.68  378 385  C 378 383.32  379.32 382  381 382  C 382.68 382  384 383.32  384 385  C 384 386.68  382.68 388  381 388  " fill-rule="nonzero" fill="#797979" stroke="none" />
</svg>