<?xml version="1.0" encoding="utf-8"?>
<svg version="1.1" xmlns:xlink="http://www.w3.org/1999/xlink" width="12px" height="12px" viewBox="481 341  12 12" xmlns="http://www.w3.org/2000/svg">
  <path d="M 487 341  C 490.36 341  493 343.64  493 347  C 493 350.36  490.36 353  487 353  C 483.64 353  481 350.36  481 347  C 481 343.64  483.64 341  487 341  Z " fill-rule="nonzero" fill="#ffffff" stroke="none" />
  <path d="M 487 341.5  C 490.08 341.5  492.5 343.92  492.5 347  C 492.5 350.08  490.08 352.5  487 352.5  C 483.92 352.5  481.5 350.08  481.5 347  C 481.5 343.92  483.92 341.5  487 341.5  Z " stroke-width="1" stroke="#797979" fill="none" />
  <path d="M 487 350  C 485.32 350  484 348.68  484 347  C 484 345.32  485.32 344  487 344  C 488.68 344  490 345.32  490 347  C 490 348.68  488.68 350  487 350  " fill-rule="nonzero" fill="#797979" stroke="none" />
</svg>