<?xml version="1.0" encoding="utf-8"?>
<svg version="1.1" xmlns:xlink="http://www.w3.org/1999/xlink" width="12px" height="12px" viewBox="431 341  12 12" xmlns="http://www.w3.org/2000/svg">
  <path d="M 437 341  C 440.36 341  443 343.64  443 347  C 443 350.36  440.36 353  437 353  C 433.64 353  431 350.36  431 347  C 431 343.64  433.64 341  437 341  Z " fill-rule="nonzero" fill="#ffffff" stroke="none" />
  <path d="M 437 341.5  C 440.08 341.5  442.5 343.92  442.5 347  C 442.5 350.08  440.08 352.5  437 352.5  C 433.92 352.5  431.5 350.08  431.5 347  C 431.5 343.92  433.92 341.5  437 341.5  Z " stroke-width="1" stroke="#797979" fill="none" />
  <path d="M 437 350  C 435.32 350  434 348.68  434 347  C 434 345.32  435.32 344  437 344  C 438.68 344  440 345.32  440 347  C 440 348.68  438.68 350  437 350  " fill-rule="nonzero" fill="#797979" stroke="none" />
</svg>