<?xml version="1.0" encoding="utf-8"?>
<svg version="1.1" xmlns:xlink="http://www.w3.org/1999/xlink" width="12px" height="12px" viewBox="1056 341  12 12" xmlns="http://www.w3.org/2000/svg">
  <path d="M 1062 341  C 1065.36 341  1068 343.64  1068 347  C 1068 350.36  1065.36 353  1062 353  C 1058.64 353  1056 350.36  1056 347  C 1056 343.64  1058.64 341  1062 341  Z " fill-rule="nonzero" fill="#ffffff" stroke="none" />
  <path d="M 1062 341.5  C 1065.08 341.5  1067.5 343.92  1067.5 347  C 1067.5 350.08  1065.08 352.5  1062 352.5  C 1058.92 352.5  1056.5 350.08  1056.5 347  C 1056.5 343.92  1058.92 341.5  1062 341.5  Z " stroke-width="1" stroke="#797979" fill="none" />
  <path d="M 1062 350  C 1060.32 350  1059 348.68  1059 347  C 1059 345.32  1060.32 344  1062 344  C 1063.68 344  1065 345.32  1065 347  C 1065 348.68  1063.68 350  1062 350  " fill-rule="nonzero" fill="#797979" stroke="none" />
</svg>