<?xml version="1.0" encoding="utf-8"?>
<svg version="1.1" xmlns:xlink="http://www.w3.org/1999/xlink" width="20px" height="16px" xmlns="http://www.w3.org/2000/svg">
  <g transform="matrix(1 0 0 1 -673 -802 )">
    <path d="M 19.6387096774194 2.20875420875421  C 19.8795698924731 2.46015712682379  20 2.76543209876543  20 3.12457912457912  C 20 3.48372615039282  19.8795698924731 3.78900112233445  19.6387096774194 4.04040404040404  L 10.2967741935484 13.7912457912458  L 8.54193548387097 15.6228956228956  C 8.30107526881721 15.8742985409652  8.00860215053764 16  7.66451612903226 16  C 7.32043010752688 16  7.02795698924731 15.8742985409652  6.78709677419355 15.6228956228956  L 5.03225806451613 13.7912457912458  L 0.361290322580645 8.91582491582492  C 0.120430107526882 8.66442199775533  0 8.35914702581369  0 8  C 0 7.64085297418631  0.120430107526882 7.33557800224467  0.361290322580645 7.08417508417508  L 2.11612903225806 5.25252525252525  C 2.35698924731183 5.00112233445567  2.6494623655914 4.87542087542087  2.99354838709677 4.87542087542088  C 3.33763440860215 4.87542087542087  3.63010752688172 5.00112233445567  3.87096774193548 5.25252525252525  L 7.66451612903226 9.22558922558922  L 16.1290322580645 0.377104377104377  C 16.3698924731183 0.125701459034792  16.6623655913979 0  17.0064516129032 0  C 17.3505376344086 0  17.6430107526882 0.125701459034792  17.8838709677419 0.377104377104377  L 19.6387096774194 2.20875420875421  Z " fill-rule="nonzero" fill="#ffffff" stroke="none" transform="matrix(1 0 0 1 673 802 )" />
  </g>
</svg>