<?xml version="1.0" encoding="utf-8"?>
<svg version="1.1" xmlns:xlink="http://www.w3.org/1999/xlink" width="12px" height="12px" viewBox="1057 341  12 12" xmlns="http://www.w3.org/2000/svg">
  <path d="M 1063 341  C 1066.36 341  1069 343.64  1069 347  C 1069 350.36  1066.36 353  1063 353  C 1059.64 353  1057 350.36  1057 347  C 1057 343.64  1059.64 341  1063 341  Z " fill-rule="nonzero" fill="#ffffff" stroke="none" />
  <path d="M 1063 341.5  C 1066.08 341.5  1068.5 343.92  1068.5 347  C 1068.5 350.08  1066.08 352.5  1063 352.5  C 1059.92 352.5  1057.5 350.08  1057.5 347  C 1057.5 343.92  1059.92 341.5  1063 341.5  Z " stroke-width="1" stroke="#797979" fill="none" />
  <path d="M 1063 350  C 1061.32 350  1060 348.68  1060 347  C 1060 345.32  1061.32 344  1063 344  C 1064.68 344  1066 345.32  1066 347  C 1066 348.68  1064.68 350  1063 350  " fill-rule="nonzero" fill="#797979" stroke="none" />
</svg>