<?xml version="1.0" encoding="utf-8"?>
<svg version="1.1" xmlns:xlink="http://www.w3.org/1999/xlink" width="12px" height="12px" viewBox="375 341  12 12" xmlns="http://www.w3.org/2000/svg">
  <path d="M 381 341  C 384.36 341  387 343.64  387 347  C 387 350.36  384.36 353  381 353  C 377.64 353  375 350.36  375 347  C 375 343.64  377.64 341  381 341  Z " fill-rule="nonzero" fill="#ffffff" stroke="none" />
  <path d="M 381 341.5  C 384.08 341.5  386.5 343.92  386.5 347  C 386.5 350.08  384.08 352.5  381 352.5  C 377.92 352.5  375.5 350.08  375.5 347  C 375.5 343.92  377.92 341.5  381 341.5  Z " stroke-width="1" stroke="#797979" fill="none" />
  <path d="M 381 350  C 379.32 350  378 348.68  378 347  C 378 345.32  379.32 344  381 344  C 382.68 344  384 345.32  384 347  C 384 348.68  382.68 350  381 350  " fill-rule="nonzero" fill="#797979" stroke="none" />
</svg>