<?xml version="1.0" encoding="utf-8"?>
<svg version="1.1" xmlns:xlink="http://www.w3.org/1999/xlink" width="12px" height="12px" viewBox="454 341  12 12" xmlns="http://www.w3.org/2000/svg">
  <path d="M 460 341  C 463.36 341  466 343.64  466 347  C 466 350.36  463.36 353  460 353  C 456.64 353  454 350.36  454 347  C 454 343.64  456.64 341  460 341  Z " fill-rule="nonzero" fill="#ffffff" stroke="none" />
  <path d="M 460 341.5  C 463.08 341.5  465.5 343.92  465.5 347  C 465.5 350.08  463.08 352.5  460 352.5  C 456.92 352.5  454.5 350.08  454.5 347  C 454.5 343.92  456.92 341.5  460 341.5  Z " stroke-width="1" stroke="#797979" fill="none" />
  <path d="M 460 350  C 458.32 350  457 348.68  457 347  C 457 345.32  458.32 344  460 344  C 461.68 344  463 345.32  463 347  C 463 348.68  461.68 350  460 350  " fill-rule="nonzero" fill="#797979" stroke="none" />
</svg>