<?xml version="1.0" encoding="utf-8"?>
<svg version="1.1" xmlns:xlink="http://www.w3.org/1999/xlink" width="12px" height="12px" viewBox="954 341  12 12" xmlns="http://www.w3.org/2000/svg">
  <path d="M 960 341  C 963.36 341  966 343.64  966 347  C 966 350.36  963.36 353  960 353  C 956.64 353  954 350.36  954 347  C 954 343.64  956.64 341  960 341  Z " fill-rule="nonzero" fill="#ffffff" stroke="none" />
  <path d="M 960 341.5  C 963.08 341.5  965.5 343.92  965.5 347  C 965.5 350.08  963.08 352.5  960 352.5  C 956.92 352.5  954.5 350.08  954.5 347  C 954.5 343.92  956.92 341.5  960 341.5  Z " stroke-width="1" stroke="#797979" fill="none" />
  <path d="M 960 350  C 958.32 350  957 348.68  957 347  C 957 345.32  958.32 344  960 344  C 961.68 344  963 345.32  963 347  C 963 348.68  961.68 350  960 350  " fill-rule="nonzero" fill="#797979" stroke="none" />
</svg>