<?xml version="1.0" encoding="utf-8"?>
<svg version="1.1" xmlns:xlink="http://www.w3.org/1999/xlink" width="9px" height="9px" xmlns="http://www.w3.org/2000/svg">
  <g transform="matrix(1 0 0 1 -79 -110 )">
    <path d="M 83.5 110  C 86.02 110  88 111.98  88 114.5  C 88 117.02  86.02 119  83.5 119  C 80.98 119  79 117.02  79 114.5  C 79 111.98  80.98 110  83.5 110  Z " fill-rule="nonzero" fill="#3c8dbc" stroke="none" />
    <path d="M 83.5 110.5  C 85.74 110.5  87.5 112.26  87.5 114.5  C 87.5 116.74  85.74 118.5  83.5 118.5  C 81.26 118.5  79.5 116.74  79.5 114.5  C 79.5 112.26  81.26 110.5  83.5 110.5  Z " stroke-width="1" stroke="#797979" fill="none" />
  </g>
</svg>