<?xml version="1.0" encoding="utf-8"?>
<svg version="1.1" xmlns:xlink="http://www.w3.org/1999/xlink" width="30px" height="30px" xmlns="http://www.w3.org/2000/svg">
  <defs>
    <mask fill="white" id="clip3">
      <path d="M 0 15  C 0 6.59999999999999  6.59999999999999 0  15 0  C 16.4538777950022 0  17.8538331246269 0.1977157063844  19.1749781555203 0.568259285799485  C 25.4869494000476 2.33858757180963  30 8.05387779500222  30 15  C 30 23.4  23.4 30  15 30  C 6.59999999999999 30  0 23.4  0 15  Z " fill-rule="evenodd" />
    </mask>
  </defs>
  <g transform="matrix(1 0 0 1 -213 -104 )">
    <path d="M 0 15  C 0 6.59999999999999  6.59999999999999 0  15 0  C 16.4538777950022 0  17.8538331246269 0.1977157063844  19.1749781555203 0.568259285799485  C 25.4869494000476 2.33858757180963  30 8.05387779500222  30 15  C 30 23.4  23.4 30  15 30  C 6.59999999999999 30  0 23.4  0 15  Z " fill-rule="nonzero" fill="#ffffff" stroke="none" transform="matrix(1 0 0 1 213 104 )" />
    <path d="M 0 15  C 0 6.59999999999999  6.59999999999999 0  15 0  C 16.4538777950022 0  17.8538331246269 0.1977157063844  19.1749781555203 0.568259285799485  C 25.4869494000476 2.33858757180963  30 8.05387779500222  30 15  C 30 23.4  23.4 30  15 30  C 6.59999999999999 30  0 23.4  0 15  Z " stroke-width="2" stroke="#797979" fill="none" transform="matrix(1 0 0 1 213 104 )" mask="url(#clip3)" />
  </g>
</svg>