<?xml version="1.0" encoding="utf-8"?>
<svg version="1.1" xmlns:xlink="http://www.w3.org/1999/xlink" width="26px" height="19px" xmlns="http://www.w3.org/2000/svg">
  <g transform="matrix(1 0 0 1 -705 -1228 )">
    <path d="M 15.3954451345756 9.06212424849699  C 15.5748792270531 9.18904475617902  15.6645962732919 9.33500334001336  15.6645962732919 9.5  C 15.6645962732919 9.66499665998664  15.5748792270531 9.81095524382097  15.3954451345756 9.93787575150301  L 2.85300207039337 18.809619238477  C 2.6735679779158 18.936539746159  2.4672187715666 19  2.23395445134576 19  C 2.00069013112491 19  1.79434092477571 18.936539746159  1.61490683229814 18.809619238477  L 0.269151138716356 17.8577154308617  C 0.0897170462387854 17.7307949231797  0 17.5848363393454  0 17.4198396793587  C 0 17.2548430193721  0.0897170462387854 17.1088844355377  0.269151138716356 16.9819639278557  L 10.8467908902692 9.5  L 0.269151138716356 2.01803607214429  C 0.0897170462387854 1.89111556446226  0 1.74515698062792  0 1.58016032064128  C 0 1.41516366065464  0.0897170462387854 1.26920507682031  0.269151138716356 1.14228456913828  L 1.61490683229814 0.190380761523046  C 1.79434092477571 0.0634602538410147  2.00069013112491 0  2.23395445134576 0  C 2.4672187715666 0  2.6735679779158 0.0634602538410147  2.85300207039337 0.190380761523046  L 15.3954451345756 9.06212424849699  Z M 25.7308488612836 9.06212424849699  C 25.9102829537612 9.18904475617902  26 9.33500334001336  26 9.5  C 26 9.66499665998664  25.9102829537612 9.81095524382097  25.7308488612836 9.93787575150301  L 13.1884057971014 18.809619238477  C 13.0089717046239 18.936539746159  12.8026224982747 19  12.5693581780538 19  C 12.336093857833 19  12.1297446514838 18.936539746159  11.9503105590062 18.809619238477  L 10.6045548654244 17.8577154308617  C 10.4251207729469 17.7307949231797  10.3354037267081 17.5848363393454  10.3354037267081 17.4198396793587  C 10.3354037267081 17.2548430193721  10.4251207729469 17.1088844355377  10.6045548654244 16.9819639278557  L 21.1821946169772 9.5  L 10.6045548654244 2.01803607214429  C 10.4251207729469 1.89111556446226  10.3354037267081 1.74515698062792  10.3354037267081 1.58016032064128  C 10.3354037267081 1.41516366065464  10.4251207729469 1.26920507682031  10.6045548654244 1.14228456913828  L 11.9503105590062 0.190380761523046  C 12.1297446514838 0.0634602538410147  12.336093857833 0  12.5693581780538 0  C 12.8026224982747 0  13.0089717046239 0.0634602538410147  13.1884057971014 0.190380761523046  L 25.7308488612836 9.06212424849699  Z " fill-rule="nonzero" fill="#000000" stroke="none" transform="matrix(1 0 0 1 705 1228 )" />
  </g>
</svg>